<?xml version="1.0" encoding="iso-8859-1"?>
<!-- Generator: Adobe Illustrator 17.1.0, SVG Export Plug-In . SVG Version: 6.00 Build 0)  -->
<!DOCTYPE svg PUBLIC "-//W3C//DTD SVG 1.1//EN" "http://www.w3.org/Graphics/SVG/1.1/DTD/svg11.dtd">
<svg version="1.1" id="Capa_1" xmlns="http://www.w3.org/2000/svg" xmlns:xlink="http://www.w3.org/1999/xlink" x="0px" y="0px"
	 viewBox="0 0 271.452 271.452" style="enable-background:new 0 0 271.452 271.452;" xml:space="preserve">
<path d="M250.393,69.893H21.059C9.447,69.893,0,79.34,0,90.952V180.5c0,11.612,9.447,21.06,21.059,21.06h229.333
	c11.612,0,21.06-9.447,21.06-21.06V90.952C271.452,79.34,262.005,69.893,250.393,69.893z M88.156,141.055
	c3.614,2.023,4.904,6.594,2.88,10.208c-1.375,2.455-3.924,3.837-6.551,3.837c-1.24,0-2.498-0.308-3.657-0.958l-10.042-5.623v9.206
	c0,4.142-3.358,7.5-7.5,7.5s-7.5-3.358-7.5-7.5v-9.205l-10.042,5.622c-1.159,0.649-2.417,0.958-3.657,0.958
	c-2.627,0-5.176-1.382-6.551-3.837c-2.024-3.614-0.734-8.185,2.88-10.208l9.518-5.329l-9.518-5.329
	c-3.614-2.023-4.904-6.594-2.88-10.208c2.023-3.613,6.595-4.905,10.208-2.88l10.042,5.622v-9.205c0-4.142,3.358-7.5,7.5-7.5
	s7.5,3.358,7.5,7.5v9.206l10.042-5.623c3.614-2.023,8.185-0.733,10.208,2.88c2.024,3.614,0.734,8.185-2.88,10.208l-9.518,5.329
	L88.156,141.055z M160.596,141.055c3.614,2.023,4.904,6.594,2.88,10.208c-1.375,2.455-3.924,3.837-6.551,3.837
	c-1.24,0-2.498-0.308-3.657-0.958l-10.042-5.622v9.205c0,4.142-3.358,7.5-7.5,7.5s-7.5-3.358-7.5-7.5v-9.206l-10.042,5.623
	c-1.159,0.649-2.417,0.958-3.657,0.958c-2.627,0-5.176-1.382-6.551-3.837c-2.024-3.614-0.734-8.185,2.88-10.208l9.518-5.329
	l-9.518-5.329c-3.614-2.023-4.904-6.594-2.88-10.208c2.024-3.613,6.594-4.905,10.208-2.88l10.042,5.623v-9.206
	c0-4.142,3.358-7.5,7.5-7.5s7.5,3.358,7.5,7.5v9.205l10.042-5.622c3.615-2.023,8.185-0.733,10.208,2.88
	c2.024,3.614,0.734,8.185-2.88,10.208l-9.518,5.329L160.596,141.055z M233.037,141.055c3.614,2.023,4.904,6.594,2.88,10.208
	c-1.375,2.455-3.924,3.837-6.551,3.837c-1.24,0-2.498-0.308-3.657-0.958l-10.042-5.622v9.205c0,4.142-3.358,7.5-7.5,7.5
	s-7.5-3.358-7.5-7.5v-9.205l-10.042,5.622c-1.159,0.649-2.417,0.958-3.657,0.958c-2.627,0-5.176-1.382-6.551-3.837
	c-2.024-3.614-0.734-8.185,2.88-10.208l9.518-5.329l-9.518-5.329c-3.614-2.023-4.904-6.594-2.88-10.208
	c2.023-3.613,6.594-4.905,10.208-2.88l10.042,5.622v-9.205c0-4.142,3.358-7.5,7.5-7.5s7.5,3.358,7.5,7.5v9.205l10.042-5.622
	c3.615-2.023,8.186-0.733,10.208,2.88c2.024,3.614,0.734,8.185-2.88,10.208l-9.518,5.329L233.037,141.055z"/>
<g>
</g>
<g>
</g>
<g>
</g>
<g>
</g>
<g>
</g>
<g>
</g>
<g>
</g>
<g>
</g>
<g>
</g>
<g>
</g>
<g>
</g>
<g>
</g>
<g>
</g>
<g>
</g>
<g>
</g>
</svg>
